<?xml version="1.0" standalone="no"?>
<!DOCTYPE svg PUBLIC "-//W3C//DTD SVG 20010904//EN"
 "http://www.w3.org/TR/2001/REC-SVG-20010904/DTD/svg10.dtd">
<svg version="1.0" xmlns="http://www.w3.org/2000/svg"
 width="543.000000pt" height="964.000000pt" viewBox="0 0 543.000000 964.000000"
 preserveAspectRatio="xMidYMid meet">

<g transform="translate(0.000000,964.000000) scale(0.100000,-0.100000)"
fill="#000000" stroke="none">
<path d="M1365 9093 c-53 -12 -127 -35 -123 -38 2 -2 26 3 53 13 46 15 159 17
1265 22 l1215 5 -1195 2 c-657 0 -1204 -1 -1215 -4z"/>
<path d="M3942 9090 c65 -5 145 -16 179 -25 141 -36 273 -140 341 -271 56
-106 68 -166 68 -331 0 -100 3 -143 11 -143 8 0 10 44 7 158 -6 172 -21 236
-81 341 -37 66 -128 159 -192 197 -102 60 -169 76 -315 80 l-135 2 117 -8z"/>
<path d="M1317 9035 c-138 -38 -262 -141 -322 -266 -19 -41 -39 -98 -45 -128
-15 -79 -14 -6692 1 -6763 31 -147 136 -281 273 -348 52 -26 106 -44 151 -50
46 -7 513 -10 1390 -8 l1320 3 69 27 c174 68 281 195 321 385 22 104 22 6623
0 6728 -41 196 -198 376 -367 421 -76 20 -2717 19 -2791 -1z"/>
<path d="M1016 8879 c-94 -104 -126 -216 -124 -424 l1 -140 7 155 c4 85 13
175 19 200 19 66 68 159 113 213 52 62 42 60 -16 -4z"/>
<path d="M4341 8903 c7 -10 21 -28 32 -39 10 -12 36 -55 57 -95 43 -80 51 -87
21 -17 -18 41 -107 168 -118 168 -3 0 1 -8 8 -17z"/>
<path d="M892 7918 c-2 -320 -3 -347 -19 -351 -17 -4 -17 -5 0 -6 16 -1 17
-21 17 -281 0 -260 -1 -280 -17 -280 -15 0 -16 -2 -3 -10 8 -5 18 -6 22 -2 5
5 7 294 5 643 -1 349 -3 478 -5 287z"/>
<path d="M4537 8254 c-4 -4 -7 -1428 -7 -3165 0 -2278 -3 -3172 -11 -3210 -37
-181 -171 -332 -366 -416 -32 -13 -45 -22 -28 -18 17 3 66 23 111 45 137 67
236 187 290 351 17 51 18 195 25 2479 3 1334 10 2437 14 2453 5 17 3 27 -4 27
-8 0 -12 207 -13 731 -2 402 -6 727 -11 723z"/>
<path d="M892 6326 c-2 -65 -5 -77 -17 -72 -13 5 -15 -31 -15 -289 0 -254 2
-295 15 -295 13 0 15 -227 17 -1897 l3 -1898 26 -67 c70 -180 219 -317 396
-363 38 -10 99 -14 183 -13 l125 1 -140 8 c-156 8 -191 16 -285 65 -119 62
-228 191 -273 323 l-22 66 -5 2255 c-3 1240 -6 2220 -8 2176z m-15 -498 c-1
-79 -3 -17 -3 137 0 154 2 218 3 143 2 -75 2 -201 0 -280z"/>
<path d="M2248 1433 c321 -2 843 -2 1160 0 317 1 55 2 -583 2 -638 0 -898 -1
-577 -2z"/>
</g>
</svg>
